<svg width="61" height="61" viewBox="0 0 61 61" fill="none" xmlns="http://www.w3.org/2000/svg">
<path d="M18.998 45.5322C21.0691 45.5322 22.748 47.2112 22.748 49.2822C22.748 51.3532 21.0691 53.0322 18.998 53.0322C16.927 53.0322 15.248 51.3532 15.248 49.2822C15.248 47.2112 16.927 45.5322 18.998 45.5322Z" stroke="black" stroke-width="3.75"/>
<path d="M41.498 45.5325C43.569 45.5325 45.248 47.2112 45.248 49.2825C45.248 51.3535 43.569 53.0325 41.498 53.0325C39.427 53.0325 37.748 51.3535 37.748 49.2825C37.748 47.2112 39.427 45.5325 41.498 45.5325Z" stroke="black" stroke-width="3.75"/>
<path d="M5.24805 8.03223L5.90107 8.26183C9.15505 9.40585 10.782 9.97788 11.7126 11.3397C12.6432 12.7015 12.6432 14.5104 12.6432 18.1281V24.9322C12.6432 32.2862 12.8013 34.713 14.9673 36.9977C17.1333 39.2822 20.6195 39.2822 27.5918 39.2822H30.248M40.849 39.2822C44.7515 39.2822 46.7028 39.2822 48.082 38.1582C49.4613 37.0342 49.8553 35.1232 50.643 31.301L51.8925 25.2391C52.7603 20.8915 53.194 18.7177 52.0843 17.2749C50.9745 15.8322 47.1825 15.8322 42.97 15.8322H27.8068M12.6432 15.8322H17.748" stroke="black" stroke-width="3.75" stroke-linecap="round"/>
</svg>
